<?xml version="1.0" encoding="UTF-8" standalone="no"?>
<!-- Created with Inkscape (http://www.inkscape.org/) -->

<svg
   xmlns:dc="http://purl.org/dc/elements/1.1/"
   xmlns:cc="http://creativecommons.org/ns#"
   xmlns:rdf="http://www.w3.org/1999/02/22-rdf-syntax-ns#"
   xmlns:svg="http://www.w3.org/2000/svg"
   xmlns="http://www.w3.org/2000/svg"
   xmlns:xlink="http://www.w3.org/1999/xlink"
   xmlns:sodipodi="http://sodipodi.sourceforge.net/DTD/sodipodi-0.dtd"
   xmlns:inkscape="http://www.inkscape.org/namespaces/inkscape"
   width="120"
   height="150"
   id="svg9692"
   version="1.1"
   inkscape:version="0.48.3.1 r9886"
   sodipodi:docname="npp.svg">
  <defs
     id="defs3">
    <linearGradient
       inkscape:collect="always"
       xlink:href="#linearGradient23416"
       id="linearGradient23422"
       x1="198.12166"
       y1="80.284355"
       x2="244.94426"
       y2="309.78214"
       gradientUnits="userSpaceOnUse"
       gradientTransform="translate(0,6)" />
    <linearGradient
       id="linearGradient23416">
      <stop
         style="stop-color:#e4e4e4;stop-opacity:1;"
         offset="0"
         id="stop23418" />
      <stop
         style="stop-color:#333333;stop-opacity:0;"
         offset="1"
         id="stop23420" />
    </linearGradient>
    <linearGradient
       y2="309.78214"
       x2="244.94426"
       y1="80.284355"
       x1="198.12166"
       gradientTransform="translate(807.70481,-94.229093)"
       gradientUnits="userSpaceOnUse"
       id="linearGradient3025"
       xlink:href="#linearGradient23416"
       inkscape:collect="always" />
    <linearGradient
       y2="64.715645"
       x2="847.01324"
       y1="23.273985"
       x1="847.01324"
       gradientUnits="userSpaceOnUse"
       id="linearGradient10852"
       xlink:href="#linearGradient5079-77"
       inkscape:collect="always" />
    <linearGradient
       inkscape:collect="always"
       id="linearGradient5079-77">
      <stop
         style="stop-color:white;stop-opacity:1;"
         offset="0"
         id="stop5081-45" />
      <stop
         style="stop-color:white;stop-opacity:0"
         offset="1"
         id="stop5083-1" />
    </linearGradient>
    <linearGradient
       y2="64.715645"
       x2="847.01324"
       y1="23.273985"
       x1="847.01324"
       gradientUnits="userSpaceOnUse"
       id="linearGradient4773"
       xlink:href="#linearGradient5079-77"
       inkscape:collect="always" />
    <linearGradient
       y2="64.715645"
       x2="847.01324"
       y1="23.273985"
       x1="847.01324"
       gradientUnits="userSpaceOnUse"
       id="linearGradient4773-1"
       xlink:href="#linearGradient5079-77-8"
       inkscape:collect="always" />
    <linearGradient
       inkscape:collect="always"
       id="linearGradient5079-77-8">
      <stop
         style="stop-color:white;stop-opacity:1;"
         offset="0"
         id="stop5081-45-6" />
      <stop
         style="stop-color:white;stop-opacity:0"
         offset="1"
         id="stop5083-1-0" />
    </linearGradient>
    <linearGradient
       y2="64.715645"
       x2="847.01324"
       y1="23.273985"
       x1="847.01324"
       gradientUnits="userSpaceOnUse"
       id="linearGradient3969-0"
       xlink:href="#linearGradient5079-77-8-2"
       inkscape:collect="always" />
    <linearGradient
       inkscape:collect="always"
       id="linearGradient5079-77-8-2">
      <stop
         style="stop-color:white;stop-opacity:1;"
         offset="0"
         id="stop5081-45-6-2" />
      <stop
         style="stop-color:white;stop-opacity:0"
         offset="1"
         id="stop5083-1-0-1" />
    </linearGradient>
  </defs>
  <sodipodi:namedview
     inkscape:document-units="mm"
     id="base"
     pagecolor="#ffffff"
     bordercolor="#666666"
     borderopacity="1.0"
     inkscape:pageopacity="0.0"
     inkscape:pageshadow="2"
     inkscape:zoom="1"
     inkscape:cx="19.555251"
     inkscape:cy="25.025198"
     inkscape:current-layer="layer1"
     showgrid="false"
     inkscape:window-width="1376"
     inkscape:window-height="975"
     inkscape:window-x="492"
     inkscape:window-y="71"
     inkscape:window-maximized="0"
     units="px"
     inkscape:showpageshadow="false"
     showborder="false"
     fit-margin-top="0"
     fit-margin-left="0"
     fit-margin-right="0"
     fit-margin-bottom="0">
    <inkscape:grid
       type="xygrid"
       id="grid3887"
       empspacing="5"
       visible="true"
       enabled="true"
       snapvisiblegridlinesonly="true"
       spacingx="1px"
       spacingy="1px"
       originx="18px"
       originy="-2.8610229e-06px" />
  </sodipodi:namedview>
  <metadata
     id="metadata4">
    <rdf:RDF>
      <cc:Work
         rdf:about="">
        <dc:format>image/svg+xml</dc:format>
        <dc:type
           rdf:resource="http://purl.org/dc/dcmitype/StillImage" />
        <dc:title></dc:title>
      </cc:Work>
    </rdf:RDF>
  </metadata>
  <g
     inkscape:label="Layer 1"
     inkscape:groupmode="layer"
     id="layer1"
     transform="translate(-321,-282.36218)">
    <path
       sodipodi:nodetypes="ccccccc"
       inkscape:connector-curvature="0"
       id="path3899"
       d="m 321,432.36218 c 10,-20 30,-100 30,-130 0,-10 -10,-10 -10,-20 l 80,0 c 0,10 -10,10 -10,20 0,30 20,110 30,130 z"
       style="fill:#222222;fill-opacity:1;fill-rule:nonzero;stroke:none" />
    <path
       inkscape:connector-curvature="0"
       sodipodi:nodetypes="cccccccccccccccccccccccccsssssccscccccsscccsc"
       style="fill:#fcd552;fill-opacity:1;stroke:none"
       d="m 365.8385,336.71258 -1.6224,1.0961 c -7.691,5.2285 -11.996,12.5549 -12.9692,22.0379 l -0.247,2.321 10.3474,0 10.3368,0 0.226,-1.2893 c 0.302,-1.7277 1.5774,-3.8862 3.0622,-5.1899 l 1.2143,-1.0643 -4.3303,-7.4893 c -2.381,-4.1194 -4.7145,-8.1443 -5.1791,-8.9506 z m 30.3225,0.01 -1.3431,2.3209 c -0.74,1.2776 -3.0761,5.3026 -5.1791,8.9507 l -3.8145,6.6403 1.2035,1.0643 c 1.4821,1.3013 2.7598,3.4526 3.0622,5.1791 l 0.226,1.2895 10.3367,0 10.3474,0 -0.237,-2.1491 c -1.0511,-9.5488 -5.3306,-16.9987 -12.5931,-21.9307 z m -15.1283,19.6885 c -0.881,-0.05 -2.546,0.239 -3.7299,1.1848 -1.7261,1.3794 -2.4936,2.9567 -2.4922,5.0868 0,2.1515 1.0926,4.0732 2.9549,5.2005 2.8612,1.732 6.92,0.732 8.596,-2.1275 1.611,-2.7489 0.914,-6.0807 -1.7299,-8.2199 -1.1492,-0.93 -2.4258,-1.1247 -3.5989,-1.1247 z m 4.2866,14.3518 c 0,0 -0.665,0.233 -1.3432,0.515 -1.5982,0.668 -5.1336,0.76 -7.23,-0.604 -1.6587,2.6915 -3.325,5.4309 -4.8796,8.1359 -2.0903,3.6126 -4.2191,7.293 -4.7385,8.1771 l -0.945,1.601 2.1597,1.0315 c 1.9821,0.938 5.6884,2.3273 7.8439,2.5788 1.3621,0.159 3.6188,0.227 5.7392,0.164 2.4415,-0.08 7.606,-0.785 11.8934,-2.8281 l 1.9878,-0.945 -0.655,-1.096 c -0.361,-0.598 -1.8567,-3.174 -3.3202,-5.7271 -3.8783,-6.7662 -6.5114,-11.0029 -6.5114,-11.0029 z"
       id="path3923" />
  </g>
</svg>
